<svg width="29" height="30" viewBox="0 0 29 30" fill="none" xmlns="http://www.w3.org/2000/svg">
<path d="M9.5551 15.217C9.5551 12.578 11.6933 10.4381 14.3315 10.4381C16.9698 10.4381 19.1091 12.578 19.1091 15.217C19.1091 17.856 16.9698 19.9959 14.3315 19.9959C11.6933 19.9959 9.5551 17.856 9.5551 15.217ZM6.97245 15.217C6.97245 19.2826 10.2671 22.5782 14.3315 22.5782C18.3959 22.5782 21.6906 19.2826 21.6906 15.217C21.6906 11.1514 18.3959 7.85581 14.3315 7.85581C10.2671 7.85581 6.97245 11.1514 6.97245 15.217ZM20.2621 7.56394C20.262 7.90418 20.3627 8.23682 20.5516 8.51979C20.7404 8.80276 21.0089 9.02336 21.3231 9.15369C21.6373 9.28402 21.9831 9.31823 22.3167 9.25198C22.6504 9.18574 22.9569 9.02202 23.1975 8.78153C23.4381 8.54104 23.602 8.23459 23.6685 7.90091C23.735 7.56724 23.7011 7.22133 23.571 6.90694C23.441 6.59255 23.2207 6.32379 22.9379 6.13465C22.6552 5.94551 22.3227 5.84448 21.9826 5.84435H21.9819C21.526 5.84456 21.0888 6.02578 20.7663 6.3482C20.4439 6.67062 20.2625 7.10788 20.2621 7.56394ZM8.54158 26.8859C7.14431 26.8222 6.38486 26.5894 5.88016 26.3927C5.21105 26.1322 4.73364 25.8218 4.23169 25.3204C3.72975 24.819 3.41904 24.3419 3.1597 23.6726C2.96295 23.168 2.73021 22.4081 2.66669 21.0104C2.59721 19.4993 2.58334 19.0454 2.58334 15.2171C2.58334 11.3888 2.59836 10.9361 2.66669 9.42379C2.73032 8.02612 2.96479 7.26771 3.1597 6.7616C3.42019 6.0923 3.73043 5.61475 4.23169 5.11266C4.73295 4.61057 5.20991 4.29977 5.88016 4.04035C6.38463 3.84355 7.14431 3.61074 8.54158 3.5472C10.0522 3.47771 10.506 3.46383 14.3315 3.46383C18.157 3.46383 18.6112 3.47885 20.1232 3.5472C21.5204 3.61085 22.2786 3.84539 22.7846 4.04035C23.4537 4.29977 23.9311 4.61125 24.433 5.11266C24.935 5.61406 25.2446 6.0923 25.505 6.7616C25.7018 7.26622 25.9345 8.02612 25.998 9.42379C26.0675 10.9361 26.0814 11.3888 26.0814 15.2171C26.0814 19.0454 26.0675 19.4981 25.998 21.0104C25.9344 22.4081 25.7005 23.1678 25.505 23.6726C25.2446 24.3419 24.9343 24.8195 24.433 25.3204C23.9318 25.8214 23.4537 26.1322 22.7846 26.3927C22.2801 26.5895 21.5204 26.8223 20.1232 26.8859C18.6125 26.9554 18.1587 26.9692 14.3315 26.9692C10.5043 26.9692 10.0518 26.9554 8.54158 26.8859ZM8.42292 0.968164C6.89724 1.03766 5.85471 1.27965 4.94426 1.63403C4.00136 1.99999 3.20315 2.49095 2.40552 3.28756C1.60788 4.08416 1.11832 4.88386 0.752462 5.82703C0.398187 6.73832 0.156271 7.78058 0.0867916 9.30669C0.0161659 10.8352 0 11.3239 0 15.217C0 19.1101 0.0161659 19.5988 0.0867916 21.1273C0.156271 22.6535 0.398187 23.6957 0.752462 24.607C1.11832 25.5496 1.608 26.3502 2.40552 27.1464C3.20304 27.9427 4.00136 28.433 4.94426 28.8C5.85643 29.1543 6.89724 29.3963 8.42292 29.4658C9.9518 29.5353 10.4395 29.5526 14.3315 29.5526C18.2235 29.5526 18.712 29.5365 20.2401 29.4658C21.7659 29.3963 22.8077 29.1543 23.7188 28.8C24.6611 28.433 25.4599 27.943 26.2575 27.1464C27.0551 26.3498 27.5437 25.5496 27.9106 24.607C28.2648 23.6957 28.5079 22.6534 28.5762 21.1273C28.6457 19.5976 28.6619 19.1101 28.6619 15.217C28.6619 11.3239 28.6457 10.8352 28.5762 9.30669C28.5067 7.78046 28.2648 6.73775 27.9106 5.82703C27.5437 4.88443 27.0539 4.08542 26.2575 3.28756C25.4611 2.48969 24.6611 1.99999 23.7199 1.63403C22.8077 1.27965 21.7658 1.03652 20.2413 0.968164C18.7132 0.898665 18.2246 0.881348 14.3327 0.881348C10.4407 0.881348 9.9518 0.897518 8.42292 0.968164Z" fill="#989898"/>
</svg>
