<svg width="144" height="28" viewBox="0 0 144 28" fill="none" xmlns="http://www.w3.org/2000/svg">
<g id="logo">
<path id="Star 2" d="M26.8133 1.07258C26.9661 0.687347 27.5113 0.687347 27.6641 1.07258L29.6204 6.00468L31.987 11.0885C32.1321 11.4003 31.8944 11.7547 31.5508 11.7388L27.2387 11.5384L22.9266 11.7388C22.583 11.7547 22.3453 11.4003 22.4904 11.0885L24.8571 6.00468L26.8133 1.07258Z" fill="#C8C8C8"/>
<path id="Star 4" d="M5.42584 1.07258C5.57863 0.687347 6.12388 0.687347 6.27668 1.07258L8.23291 6.00468L10.5995 11.0885C10.7447 11.4003 10.5069 11.7547 10.1634 11.7388L5.85126 11.5384L1.53915 11.7388C1.1956 11.7547 0.957848 11.4003 1.10299 11.0885L3.46961 6.00468L5.42584 1.07258Z" fill="#C8C8C8"/>
<path id="Star 3" d="M27.664 25.9052C27.5112 26.2904 26.966 26.2904 26.8132 25.9052L24.8569 20.9731L22.4903 15.8893C22.3452 15.5775 22.5829 15.223 22.9265 15.239L27.2386 15.4394L31.5507 15.239C31.8942 15.223 32.132 15.5775 31.9869 15.8893L29.6202 20.9731L27.664 25.9052Z" fill="#C8C8C8"/>
<path id="Star 5" d="M6.2768 25.9052C6.124 26.2904 5.57875 26.2904 5.42596 25.9052L3.46973 20.9731L1.10311 15.8893C0.957968 15.5775 1.19572 15.223 1.53927 15.239L5.85138 15.4394L10.1635 15.239C10.507 15.223 10.7448 15.5775 10.5996 15.8893L8.23303 20.9731L6.2768 25.9052Z" fill="#C8C8C8"/>
<circle id="Ellipse 1" cx="16.5449" cy="24.1924" r="3.63182" fill="#C21A27"/>
<g id="so serious">
<path d="M44.489 12.9573C44.5943 11.7087 44.489 10.7685 44.1732 10.1367C43.8573 9.48991 43.248 9.16649 42.3455 9.16649C41.9243 9.16649 41.5783 9.22666 41.3075 9.347C41.0518 9.46734 40.8487 9.61777 40.6983 9.79828C40.5478 9.9788 40.4425 10.1668 40.3824 10.3624C40.3222 10.5579 40.2921 10.7309 40.2921 10.8814C40.2921 11.1672 40.3749 11.4304 40.5403 11.6711C40.7058 11.8967 40.8938 12.0998 41.1044 12.2803C41.315 12.4458 41.5256 12.5887 41.7362 12.7091C41.9619 12.8144 42.1198 12.8896 42.2101 12.9347C42.7366 13.2205 43.2931 13.5138 43.8798 13.8147C44.4815 14.1005 45.0306 14.4164 45.527 14.7624C46.0385 15.1084 46.4597 15.4995 46.7906 15.9357C47.1215 16.372 47.287 16.8834 47.287 17.4701C47.287 17.786 47.2193 18.1094 47.0839 18.4404C46.9485 18.7713 46.7154 19.0722 46.3844 19.3429C46.0535 19.6137 45.6022 19.8393 45.0306 20.0198C44.474 20.2004 43.7595 20.2906 42.887 20.2906C41.9844 20.2906 41.1872 20.1928 40.4952 19.9973C39.8183 19.8017 39.2466 19.546 38.7803 19.2301C38.314 18.9142 37.953 18.5607 37.6972 18.1696C37.4415 17.7785 37.2836 17.3798 37.2234 16.9737L39.5926 15.6198C39.5926 16.2215 39.6528 16.7781 39.7731 17.2896C39.9085 17.801 40.1041 18.2448 40.3598 18.6209C40.6306 18.9819 40.969 19.2677 41.3752 19.4783C41.7964 19.6739 42.3003 19.7716 42.887 19.7716C43.3684 19.7716 43.7444 19.7115 44.0152 19.5911C44.286 19.4557 44.4815 19.2978 44.6019 19.1173C44.7373 18.9217 44.8125 18.7186 44.8275 18.508C44.8426 18.2975 44.835 18.1169 44.8049 17.9665C44.7297 17.6205 44.5492 17.3197 44.2634 17.0639C43.9776 16.7932 43.6467 16.5525 43.2706 16.3419C42.9096 16.1162 42.526 15.9207 42.1198 15.7552C41.7287 15.5898 41.3752 15.4393 41.0593 15.3039C40.0665 14.8677 39.2993 14.3788 38.7578 13.8373C38.2313 13.2807 37.968 12.5737 37.968 11.7162C37.968 11.0544 38.1109 10.5279 38.3967 10.1367C38.6976 9.73059 39.0661 9.42221 39.5024 9.21161C39.9386 9.00102 40.4049 8.86563 40.9013 8.80546C41.4128 8.73025 41.8791 8.69264 42.3003 8.69264C43.2179 8.69264 43.9701 8.79794 44.5567 9.00854C45.1585 9.20409 45.6398 9.4523 46.0008 9.75315C46.3619 10.054 46.6251 10.385 46.7906 10.746C46.9561 11.107 47.0764 11.4379 47.1516 11.7388L44.489 12.9573Z" fill="white"/>
<path d="M54.7526 8.57982C55.5649 8.57982 56.3245 8.70768 57.0316 8.96341C57.7386 9.20409 58.3478 9.56512 58.8592 10.0465C59.3857 10.5279 59.7919 11.1296 60.0777 11.8516C60.3786 12.5737 60.529 13.401 60.529 14.3337C60.529 15.2814 60.3786 16.1162 60.0777 16.8383C59.7919 17.5453 59.3857 18.147 58.8592 18.6434C58.3478 19.1248 57.7386 19.4934 57.0316 19.7491C56.3245 19.9898 55.5649 20.1101 54.7526 20.1101C53.9403 20.1101 53.1656 19.9973 52.4285 19.7716C51.7064 19.546 51.0746 19.2 50.5331 18.7337C49.9915 18.2523 49.5553 17.6506 49.2243 16.9286C48.9085 16.1915 48.7505 15.3265 48.7505 14.3337C48.7505 13.3409 48.9085 12.4834 49.2243 11.7614C49.5553 11.0393 49.9915 10.4451 50.5331 9.9788C51.0746 9.49743 51.7064 9.14392 52.4285 8.91828C53.1656 8.69264 53.9403 8.57982 54.7526 8.57982ZM54.7526 19.6814C55.0384 19.6814 55.3167 19.5836 55.5874 19.3881C55.8733 19.1925 56.129 18.8841 56.3546 18.4629C56.5803 18.0417 56.7608 17.4927 56.8962 16.8157C57.0466 16.1238 57.1218 15.2964 57.1218 14.3337C57.1218 13.4311 57.0466 12.6489 56.8962 11.987C56.7608 11.3101 56.5803 10.7535 56.3546 10.3173C56.129 9.86598 55.8733 9.53503 55.5874 9.32444C55.3167 9.11384 55.0384 9.00854 54.7526 9.00854C54.4668 9.00854 54.1659 9.10632 53.85 9.30187C53.5341 9.49743 53.2408 9.8058 52.97 10.227C52.6992 10.6482 52.4736 11.1973 52.2931 11.8742C52.1276 12.5511 52.0449 13.3709 52.0449 14.3337C52.0449 15.3566 52.1276 16.214 52.2931 16.906C52.4736 17.5829 52.6992 18.132 52.97 18.5532C53.2408 18.9593 53.5341 19.2527 53.85 19.4332C54.1659 19.5987 54.4668 19.6814 54.7526 19.6814Z" fill="white"/>
<path d="M74.6334 12.9573C74.7387 11.7087 74.6334 10.7685 74.3175 10.1367C74.0016 9.48991 73.3923 9.16649 72.4898 9.16649C72.0686 9.16649 71.7226 9.22666 71.4518 9.347C71.1961 9.46734 70.993 9.61777 70.8426 9.79828C70.6922 9.9788 70.5869 10.1668 70.5267 10.3624C70.4665 10.5579 70.4364 10.7309 70.4364 10.8814C70.4364 11.1672 70.5192 11.4304 70.6846 11.6711C70.8501 11.8967 71.0381 12.0998 71.2487 12.2803C71.4593 12.4458 71.6699 12.5887 71.8805 12.7091C72.1062 12.8144 72.2641 12.8896 72.3544 12.9347C72.8809 13.2205 73.4375 13.5138 74.0241 13.8147C74.6258 14.1005 75.1749 14.4164 75.6713 14.7624C76.1828 15.1084 76.604 15.4995 76.9349 15.9357C77.2658 16.372 77.4313 16.8834 77.4313 17.4701C77.4313 17.786 77.3636 18.1094 77.2282 18.4404C77.0929 18.7713 76.8597 19.0722 76.5288 19.3429C76.1978 19.6137 75.7465 19.8393 75.1749 20.0198C74.6183 20.2004 73.9038 20.2906 73.0313 20.2906C72.1287 20.2906 71.3315 20.1928 70.6395 19.9973C69.9626 19.8017 69.391 19.546 68.9246 19.2301C68.4583 18.9142 68.0973 18.5607 67.8415 18.1696C67.5858 17.7785 67.4279 17.3798 67.3677 16.9737L69.7369 15.6198C69.7369 16.2215 69.7971 16.7781 69.9174 17.2896C70.0528 17.801 70.2484 18.2448 70.5041 18.6209C70.7749 18.9819 71.1134 19.2677 71.5195 19.4783C71.9407 19.6739 72.4446 19.7716 73.0313 19.7716C73.5127 19.7716 73.8887 19.7115 74.1595 19.5911C74.4303 19.4557 74.6258 19.2978 74.7462 19.1173C74.8816 18.9217 74.9568 18.7186 74.9718 18.508C74.9869 18.2975 74.9793 18.1169 74.9493 17.9665C74.874 17.6205 74.6935 17.3197 74.4077 17.0639C74.1219 16.7932 73.791 16.5525 73.4149 16.3419C73.0539 16.1162 72.6703 15.9207 72.2641 15.7552C71.873 15.5898 71.5195 15.4393 71.2036 15.3039C70.2108 14.8677 69.4436 14.3788 68.9021 13.8373C68.3756 13.2807 68.1123 12.5737 68.1123 11.7162C68.1123 11.0544 68.2552 10.5279 68.541 10.1367C68.8419 9.73059 69.2104 9.42221 69.6467 9.21161C70.0829 9.00102 70.5492 8.86563 71.0457 8.80546C71.5571 8.73025 72.0234 8.69264 72.4446 8.69264C73.3622 8.69264 74.1144 8.79794 74.7011 9.00854C75.3028 9.20409 75.7841 9.4523 76.1452 9.75315C76.5062 10.054 76.7694 10.385 76.9349 10.746C77.1004 11.107 77.2207 11.4379 77.2959 11.7388L74.6334 12.9573Z" fill="white"/>
<path d="M90.6507 16.3645C90.5304 16.8157 90.3348 17.267 90.0641 17.7183C89.7933 18.1696 89.4323 18.5757 88.981 18.9368C88.5448 19.2828 88.0107 19.561 87.3789 19.7716C86.7622 19.9973 86.0326 20.1101 85.1902 20.1101C83.1444 20.1101 81.61 19.6062 80.5871 18.5983C79.5793 17.5904 79.0753 16.1689 79.0753 14.3337C79.0753 12.6038 79.5492 11.2198 80.4969 10.1819C81.4596 9.14392 82.9037 8.6099 84.8292 8.57982C85.8822 8.56478 86.7772 8.7152 87.5143 9.0311C88.2665 9.33196 88.8757 9.76068 89.342 10.3173C89.8234 10.8738 90.1694 11.5282 90.38 12.2803C90.6056 13.0325 90.7184 13.8448 90.7184 14.7173H82.2794C82.3396 15.1836 82.4148 15.7101 82.5051 16.2968C82.6104 16.8684 82.7683 17.4099 82.9789 17.9214C83.1895 18.4328 83.4678 18.8616 83.8138 19.2075C84.1748 19.5535 84.6336 19.7265 85.1902 19.7265C85.5663 19.7265 85.8747 19.6287 86.1153 19.4332C86.3711 19.2226 86.5742 18.9593 86.7246 18.6434C86.89 18.3125 87.0254 17.9515 87.1307 17.5604C87.236 17.1542 87.3413 16.7556 87.4466 16.3645H90.6507ZM87.4466 14.1306C87.4918 13.5138 87.4993 12.9046 87.4692 12.3029C87.4391 11.6862 87.3338 11.1371 87.1533 10.6557C86.9728 10.1593 86.6945 9.76068 86.3184 9.45982C85.9574 9.14392 85.461 8.98597 84.8292 8.98597C84.3629 8.98597 83.9718 9.09879 83.6559 9.32444C83.34 9.53503 83.0842 9.8058 82.8887 10.1367C82.6931 10.4677 82.5502 10.8362 82.46 11.2424C82.3697 11.6485 82.302 12.0472 82.2569 12.4383C82.2268 12.8144 82.2117 13.1603 82.2117 13.4762C82.2268 13.7771 82.2343 13.9952 82.2343 14.1306H87.4466Z" fill="white"/>
<path d="M93.0002 8.80546H96.1141V10.4978C96.5052 10.0164 96.964 9.59521 97.4905 9.23418C98.032 8.85811 98.5886 8.63247 99.1603 8.55725C99.5363 8.51213 99.8522 8.53469 100.108 8.62495C100.379 8.7152 100.597 8.83555 100.762 8.98597C100.943 9.12136 101.078 9.26426 101.168 9.41469C101.274 9.56512 101.341 9.67794 101.372 9.75315L99.9274 11.5809L99.0474 10.5655C98.8067 10.2646 98.5134 10.1142 98.1674 10.1142C97.8214 10.1142 97.4679 10.242 97.1069 10.4978C96.7459 10.7385 96.4149 11.0468 96.1141 11.4229V19.7716H93.0002V8.80546Z" fill="white"/>
<path d="M102.929 6.0752H106.042V7.06802H102.929V6.0752ZM102.929 8.80546H106.042V19.7716H102.929V8.80546Z" fill="white"/>
<path d="M113.697 8.57982C114.509 8.57982 115.269 8.70768 115.976 8.96341C116.683 9.20409 117.292 9.56512 117.804 10.0465C118.33 10.5279 118.736 11.1296 119.022 11.8516C119.323 12.5737 119.473 13.401 119.473 14.3337C119.473 15.2814 119.323 16.1162 119.022 16.8383C118.736 17.5453 118.33 18.147 117.804 18.6434C117.292 19.1248 116.683 19.4934 115.976 19.7491C115.269 19.9898 114.509 20.1101 113.697 20.1101C112.885 20.1101 112.11 19.9973 111.373 19.7716C110.651 19.546 110.019 19.2 109.478 18.7337C108.936 18.2523 108.5 17.6506 108.169 16.9286C107.853 16.1915 107.695 15.3265 107.695 14.3337C107.695 13.3409 107.853 12.4834 108.169 11.7614C108.5 11.0393 108.936 10.4451 109.478 9.9788C110.019 9.49743 110.651 9.14392 111.373 8.91828C112.11 8.69264 112.885 8.57982 113.697 8.57982ZM113.697 19.6814C113.983 19.6814 114.261 19.5836 114.532 19.3881C114.818 19.1925 115.073 18.8841 115.299 18.4629C115.525 18.0417 115.705 17.4927 115.841 16.8157C115.991 16.1238 116.066 15.2964 116.066 14.3337C116.066 13.4311 115.991 12.6489 115.841 11.987C115.705 11.3101 115.525 10.7535 115.299 10.3173C115.073 9.86598 114.818 9.53503 114.532 9.32444C114.261 9.11384 113.983 9.00854 113.697 9.00854C113.411 9.00854 113.11 9.10632 112.794 9.30187C112.479 9.49743 112.185 9.8058 111.914 10.227C111.644 10.6482 111.418 11.1973 111.238 11.8742C111.072 12.5511 110.989 13.3709 110.989 14.3337C110.989 15.3566 111.072 16.214 111.238 16.906C111.418 17.5829 111.644 18.132 111.914 18.5532C112.185 18.9593 112.479 19.2527 112.794 19.4332C113.11 19.5987 113.411 19.6814 113.697 19.6814Z" fill="white"/>
<path d="M128.258 18.1922C127.912 18.7036 127.513 19.1323 127.062 19.4783C126.611 19.8093 126.122 19.9747 125.595 19.9747C124.949 19.9747 124.354 19.8694 123.813 19.6588C123.271 19.4332 122.805 19.1323 122.414 18.7563C122.023 18.3651 121.714 17.9063 121.489 17.3798C121.278 16.8533 121.173 16.2892 121.173 15.6875V8.80546H124.287V15.3265C124.287 15.7026 124.309 16.0786 124.354 16.4547C124.415 16.8157 124.52 17.1392 124.67 17.425C124.821 17.7108 125.039 17.9439 125.325 18.1245C125.625 18.305 126.009 18.3952 126.475 18.3952C126.806 18.3952 127.122 18.2975 127.423 18.1019C127.724 17.9063 128.002 17.6356 128.258 17.2896V8.80546H131.372V19.7942L128.258 18.4178V18.1922Z" fill="white"/>
<path d="M140.585 12.9573C140.69 11.7087 140.585 10.7685 140.269 10.1367C139.953 9.48991 139.344 9.16649 138.441 9.16649C138.02 9.16649 137.674 9.22666 137.404 9.347C137.148 9.46734 136.945 9.61777 136.794 9.79828C136.644 9.9788 136.539 10.1668 136.478 10.3624C136.418 10.5579 136.388 10.7309 136.388 10.8814C136.388 11.1672 136.471 11.4304 136.636 11.6711C136.802 11.8967 136.99 12.0998 137.2 12.2803C137.411 12.4458 137.622 12.5887 137.832 12.7091C138.058 12.8144 138.216 12.8896 138.306 12.9347C138.833 13.2205 139.389 13.5138 139.976 13.8147C140.578 14.1005 141.127 14.4164 141.623 14.7624C142.134 15.1084 142.556 15.4995 142.887 15.9357C143.218 16.372 143.383 16.8834 143.383 17.4701C143.383 17.786 143.315 18.1094 143.18 18.4404C143.045 18.7713 142.811 19.0722 142.48 19.3429C142.15 19.6137 141.698 19.8393 141.127 20.0198C140.57 20.2004 139.855 20.2906 138.983 20.2906C138.08 20.2906 137.283 20.1928 136.591 19.9973C135.914 19.8017 135.343 19.546 134.876 19.2301C134.41 18.9142 134.049 18.5607 133.793 18.1696C133.538 17.7785 133.38 17.3798 133.319 16.9737L135.689 15.6198C135.689 16.2215 135.749 16.7781 135.869 17.2896C136.005 17.801 136.2 18.2448 136.456 18.6209C136.727 18.9819 137.065 19.2677 137.471 19.4783C137.892 19.6739 138.396 19.7716 138.983 19.7716C139.464 19.7716 139.84 19.7115 140.111 19.5911C140.382 19.4557 140.578 19.2978 140.698 19.1173C140.833 18.9217 140.908 18.7186 140.924 18.508C140.939 18.2975 140.931 18.1169 140.901 17.9665C140.826 17.6205 140.645 17.3197 140.359 17.0639C140.074 16.7932 139.743 16.5525 139.367 16.3419C139.006 16.1162 138.622 15.9207 138.216 15.7552C137.825 15.5898 137.471 15.4393 137.155 15.3039C136.162 14.8677 135.395 14.3788 134.854 13.8373C134.327 13.2807 134.064 12.5737 134.064 11.7162C134.064 11.0544 134.207 10.5279 134.493 10.1367C134.794 9.73059 135.162 9.42221 135.598 9.21161C136.035 9.00102 136.501 8.86563 136.997 8.80546C137.509 8.73025 137.975 8.69264 138.396 8.69264C139.314 8.69264 140.066 8.79794 140.653 9.00854C141.254 9.20409 141.736 9.4523 142.097 9.75315C142.458 10.054 142.721 10.385 142.887 10.746C143.052 11.107 143.172 11.4379 143.248 11.7388L140.585 12.9573Z" fill="white"/>
</g>
</g>
</svg>
