<svg width="30" height="25" viewBox="0 0 30 25" fill="none" xmlns="http://www.w3.org/2000/svg">
<path d="M29.7757 3.05128C28.8298 3.45875 27.8353 3.74249 26.8168 3.89549C27.293 3.81379 27.9936 2.95596 28.2725 2.60874C28.6962 2.085 29.0191 1.48711 29.2248 0.845428C29.2248 0.797771 29.2724 0.729689 29.2248 0.695649C29.2008 0.682539 29.1739 0.675669 29.1465 0.675669C29.1192 0.675669 29.0923 0.682539 29.0683 0.695649C27.9624 1.29505 26.7855 1.75254 25.5652 2.05728C25.5227 2.07029 25.4774 2.07145 25.4343 2.06066C25.3912 2.04986 25.3518 2.02751 25.3204 1.99601C25.2254 1.88281 25.1231 1.77592 25.0143 1.67603C24.5166 1.22971 23.9519 0.864429 23.3409 0.593526C22.5162 0.254872 21.6254 0.108209 20.7357 0.164612C19.8725 0.219178 19.0297 0.450921 18.2598 0.845428C17.5016 1.26135 16.8352 1.8264 16.3007 2.50662C15.7385 3.20674 15.3326 4.01924 15.1104 4.88948C14.9271 5.71725 14.9063 6.57279 15.0492 7.4085C15.0492 7.55147 15.0492 7.5719 14.9267 7.55147C10.0768 6.83662 6.09756 5.11415 2.84614 1.41731C2.7033 1.25392 2.62848 1.25392 2.51284 1.41731C1.098 3.5687 1.78501 6.97278 3.55357 8.6544C3.79164 8.87907 4.03652 9.09693 4.295 9.30117C3.48413 9.24356 2.69306 9.02362 1.96867 8.6544C1.83263 8.56589 1.75781 8.61355 1.751 8.77694C1.73172 9.00347 1.73172 9.23123 1.751 9.45776C1.89293 10.5434 2.32039 11.5718 2.98967 12.4379C3.65895 13.3039 4.54602 13.9765 5.56019 14.3869C5.80742 14.4929 6.06503 14.5727 6.32883 14.6252C5.57817 14.7731 4.80827 14.7961 4.05012 14.6932C3.88687 14.6592 3.82565 14.7477 3.88687 14.9043C4.88678 17.6276 7.05666 18.4582 8.64836 18.9211C8.86602 18.9552 9.08369 18.9552 9.32857 19.0096C9.32857 19.0096 9.32857 19.0096 9.28775 19.0505C8.81841 19.9083 6.92062 20.487 6.04994 20.7866C4.46075 21.3579 2.76636 21.5763 1.0844 21.4265C0.819113 21.3857 0.757893 21.3925 0.689872 21.4265C0.621851 21.4606 0.689872 21.5355 0.764696 21.6035C1.1048 21.8282 1.44491 22.0256 1.79862 22.2163C2.85162 22.7911 3.96485 23.2478 5.11805 23.5779C11.0903 25.2255 17.8108 24.0136 22.2934 19.5543C25.8169 16.0549 27.0549 11.2279 27.0549 6.39409C27.0549 6.21027 27.2794 6.10133 27.4086 6.00602C28.3 5.31083 29.0859 4.48983 29.7417 3.5687C29.8553 3.43139 29.9135 3.25656 29.905 3.07851C29.905 2.97639 29.905 2.99681 29.7757 3.05128Z" fill="#989898"/>
</svg>
